TITLE ""
FILE "1Q_j_2314-2327.mp3" MP3
  TRACK 01 AUDIO
    TITLE "1Q_j_2314-2327_01"
    INDEX 01 00:00:00
  TRACK 02 AUDIO
    TITLE "1Q_j_2314-2327_02"
    INDEX 01 00:00:08
  TRACK 03 AUDIO
    TITLE "1Q_j_2314-2327_03"
    INDEX 01 00:01:53
  TRACK 04 AUDIO
    TITLE "1Q_j_2314-2327_04"
    INDEX 01 00:01:65
  TRACK 05 AUDIO
    TITLE "1Q_j_2314-2327_05"
    INDEX 01 00:03:54
  TRACK 06 AUDIO
    TITLE "1Q_j_2314-2327_06"
    INDEX 01 00:03:63
  TRACK 07 AUDIO
    TITLE "1Q_j_2314-2327_07"
    INDEX 01 00:08:29
  TRACK 08 AUDIO
    TITLE "1Q_j_2314-2327_08"
    INDEX 01 00:09:01
  TRACK 09 AUDIO
    TITLE "1Q_j_2314-2327_09"
    INDEX 01 00:10:30
  TRACK 10 AUDIO
    TITLE "1Q_j_2314-2327_10"
    INDEX 01 00:10:38
  TRACK 11 AUDIO
    TITLE "1Q_j_2314-2327_11"
    INDEX 01 00:14:30
  TRACK 12 AUDIO
    TITLE "1Q_j_2314-2327_12"
    INDEX 01 00:14:38
  TRACK 13 AUDIO
    TITLE "1Q_j_2314-2327_13"
    INDEX 01 00:21:50
  TRACK 14 AUDIO
    TITLE "1Q_j_2314-2327_14"
    INDEX 01 00:22:20
  TRACK 15 AUDIO
    TITLE "1Q_j_2314-2327_15"
    INDEX 01 00:23:51
  TRACK 16 AUDIO
    TITLE "1Q_j_2314-2327_16"
    INDEX 01 00:23:56
  TRACK 17 AUDIO
    TITLE "1Q_j_2314-2327_17"
    INDEX 01 00:25:57
  TRACK 18 AUDIO
    TITLE "1Q_j_2314-2327_18"
    INDEX 01 00:25:65
  TRACK 19 AUDIO
    TITLE "1Q_j_2314-2327_19"
    INDEX 01 00:31:09
  TRACK 20 AUDIO
    TITLE "1Q_j_2314-2327_20"
    INDEX 01 00:31:54
  TRACK 21 AUDIO
    TITLE "1Q_j_2314-2327_21"
    INDEX 01 00:33:02
  TRACK 22 AUDIO
    TITLE "1Q_j_2314-2327_22"
    INDEX 01 00:33:10
  TRACK 23 AUDIO
    TITLE "1Q_j_2314-2327_23"
    INDEX 01 00:34:60
  TRACK 24 AUDIO
    TITLE "1Q_j_2314-2327_24"
    INDEX 01 00:34:68
  TRACK 25 AUDIO
    TITLE "1Q_j_2314-2327_25"
    INDEX 01 00:39:42
  TRACK 26 AUDIO
    TITLE "1Q_j_2314-2327_26"
    INDEX 01 00:40:14
  TRACK 27 AUDIO
    TITLE "1Q_j_2314-2327_27"
    INDEX 01 00:41:23
  TRACK 28 AUDIO
    TITLE "1Q_j_2314-2327_28"
    INDEX 01 00:41:43
  TRACK 29 AUDIO
    TITLE "1Q_j_2314-2327_29"
    INDEX 01 00:44:00
  TRACK 30 AUDIO
    TITLE "1Q_j_2314-2327_30"
    INDEX 01 00:44:08
  TRACK 31 AUDIO
    TITLE "1Q_j_2314-2327_31"
    INDEX 01 00:48:68
  TRACK 32 AUDIO
    TITLE "1Q_j_2314-2327_32"
    INDEX 01 00:49:40
  TRACK 33 AUDIO
    TITLE "1Q_j_2314-2327_33"
    INDEX 01 00:50:57
  TRACK 34 AUDIO
    TITLE "1Q_j_2314-2327_34"
    INDEX 01 00:50:65
  TRACK 35 AUDIO
    TITLE "1Q_j_2314-2327_35"
    INDEX 01 00:53:12
  TRACK 36 AUDIO
    TITLE "1Q_j_2314-2327_36"
    INDEX 01 00:53:20
  TRACK 37 AUDIO
    TITLE "1Q_j_2314-2327_37"
    INDEX 01 00:59:54
  TRACK 38 AUDIO
    TITLE "1Q_j_2314-2327_38"
    INDEX 01 01:00:26
  TRACK 39 AUDIO
    TITLE "1Q_j_2314-2327_39"
    INDEX 01 01:01:49
  TRACK 40 AUDIO
    TITLE "1Q_j_2314-2327_40"
    INDEX 01 01:01:57
  TRACK 41 AUDIO
    TITLE "1Q_j_2314-2327_41"
    INDEX 01 01:03:36
  TRACK 42 AUDIO
    TITLE "1Q_j_2314-2327_42"
    INDEX 01 01:03:42
  TRACK 43 AUDIO
    TITLE "1Q_j_2314-2327_43"
    INDEX 01 01:09:15
  TRACK 44 AUDIO
    TITLE "1Q_j_2314-2327_44"
    INDEX 01 01:09:62
  TRACK 45 AUDIO
    TITLE "1Q_j_2314-2327_45"
    INDEX 01 01:11:16
  TRACK 46 AUDIO
    TITLE "1Q_j_2314-2327_46"
    INDEX 01 01:11:24
  TRACK 47 AUDIO
    TITLE "1Q_j_2314-2327_47"
    INDEX 01 01:15:22
  TRACK 48 AUDIO
    TITLE "1Q_j_2314-2327_48"
    INDEX 01 01:15:28
  TRACK 49 AUDIO
    TITLE "1Q_j_2314-2327_49"
    INDEX 01 01:20:50
  TRACK 50 AUDIO
    TITLE "1Q_j_2314-2327_50"
    INDEX 01 01:21:21
  TRACK 51 AUDIO
    TITLE "1Q_j_2314-2327_51"
    INDEX 01 01:22:73
  TRACK 52 AUDIO
    TITLE "1Q_j_2314-2327_52"
    INDEX 01 01:23:06
  TRACK 53 AUDIO
    TITLE "1Q_j_2314-2327_53"
    INDEX 01 01:26:55
  TRACK 54 AUDIO
    TITLE "1Q_j_2314-2327_54"
    INDEX 01 01:26:61
  TRACK 55 AUDIO
    TITLE "1Q_j_2314-2327_55"
    INDEX 01 01:31:07
  TRACK 56 AUDIO
    TITLE "1Q_j_2314-2327_56"
    INDEX 01 01:31:52
  TRACK 57 AUDIO
    TITLE "1Q_j_2314-2327_57"
    INDEX 01 01:33:26
  TRACK 58 AUDIO
    TITLE "1Q_j_2314-2327_58"
    INDEX 01 01:33:37
  TRACK 59 AUDIO
    TITLE "1Q_j_2314-2327_59"
    INDEX 01 01:35:11
  TRACK 60 AUDIO
    TITLE "1Q_j_2314-2327_60"
    INDEX 01 01:35:17
  TRACK 61 AUDIO
    TITLE "1Q_j_2314-2327_61"
    INDEX 01 01:41:00
  TRACK 62 AUDIO
    TITLE "1Q_j_2314-2327_62"
    INDEX 01 01:41:47
  TRACK 63 AUDIO
    TITLE "1Q_j_2314-2327_63"
    INDEX 01 01:43:03
  TRACK 64 AUDIO
    TITLE "1Q_j_2314-2327_64"
    INDEX 01 01:43:10
  TRACK 65 AUDIO
    TITLE "1Q_j_2314-2327_65"
    INDEX 01 01:45:35
  TRACK 66 AUDIO
    TITLE "1Q_j_2314-2327_66"
    INDEX 01 01:45:41
  TRACK 67 AUDIO
    TITLE "1Q_j_2314-2327_67"
    INDEX 01 01:50:55
  TRACK 68 AUDIO
    TITLE "1Q_j_2314-2327_68"
    INDEX 01 01:51:27
  TRACK 69 AUDIO
    TITLE "1Q_j_2314-2327_69"
    INDEX 01 01:52:50
  TRACK 70 AUDIO
    TITLE "1Q_j_2314-2327_70"
    INDEX 01 01:52:56
  TRACK 71 AUDIO
    TITLE "1Q_j_2314-2327_71"
    INDEX 01 01:54:34
  TRACK 72 AUDIO
    TITLE "1Q_j_2314-2327_72"
    INDEX 01 01:54:42
  TRACK 73 AUDIO
    TITLE "1Q_j_2314-2327_73"
    INDEX 01 02:00:28
  TRACK 74 AUDIO
    TITLE "1Q_j_2314-2327_74"
    INDEX 01 02:01:00
  TRACK 75 AUDIO
    TITLE "1Q_j_2314-2327_75"
    INDEX 01 02:02:39
  TRACK 76 AUDIO
    TITLE "1Q_j_2314-2327_76"
    INDEX 01 02:02:47
  TRACK 77 AUDIO
    TITLE "1Q_j_2314-2327_77"
    INDEX 01 02:04:65
  TRACK 78 AUDIO
    TITLE "1Q_j_2314-2327_78"
    INDEX 01 02:04:73
  TRACK 79 AUDIO
    TITLE "1Q_j_2314-2327_79"
    INDEX 01 02:11:44
  TRACK 80 AUDIO
    TITLE "1Q_j_2314-2327_80"
    INDEX 01 02:12:16
  TRACK 81 AUDIO
    TITLE "1Q_j_2314-2327_81"
    INDEX 01 02:13:41
  TRACK 82 AUDIO
    TITLE "1Q_j_2314-2327_82"
    INDEX 01 02:13:51
  TRACK 83 AUDIO
    TITLE "1Q_j_2314-2327_83"
    INDEX 01 02:15:38
  TRACK 84 AUDIO
    TITLE "1Q_j_2314-2327_84"
    INDEX 01 02:15:48
  TRACK 85 AUDIO
    TITLE "1Q_j_2314-2327_85"
    INDEX 01 02:22:34
